<svg xmlns="http://www.w3.org/2000/svg" viewBox="0 0 500 500"><ellipse cx="250" cy="345.63" rx="233.47" ry="134.79" fill="#f5f5f5"/><g fill="#e0e0e0"><path d="M218.75 456.97l-114.19-65.93 188.15-108.28 114.2 65.93-188.16 108.28z"/><path d="M405.59 326.13c-12.21 7.05-12.21 18.48 0 25.53s32 7 44.21 0 12.21-18.48 0-25.53-32-7.05-44.21 0zM60.15 388.75c-15 8.31-15 21.78 0 30.09s39.33 8.31 54.34 0 15-21.78 0-30.09-39.34-8.3-54.34 0zM172.45 397.89l-75.9-43.82c-3.77-2.18-3.77-5.7 0-7.87l50.32-29.06a16.34 16.34 0 0113.85-.41l81.85 41c3.89 1.94 4 5.28.23 7.45l-56.72 32.75a15.08 15.08 0 01-13.63-.04z"/></g><path fill="#fafafa" d="M52.58 106l1.83 1.09 37.42-21.61L90 84.39 52.58 106z"/><path fill="#fff" d="M90 84.39l-35.59 20.55V67.66l35.6-20.53L90 84.39z"/><path d="M95.27 40.1L51 65.68v47.37l44.3-25.58zm-3.44 45.38l-37.42 21.61V67.66l37.42-21.6z" fill="#f0f0f0"/><path fill="#e0e0e0" d="M91.83 85.48L90 84.39l.01-37.26 1.82-1.07v39.42z"/><path fill="#fafafa" d="M95.27 40.1l-1.85-1.06-44.31 25.58 1.86 1.06 44.3-25.58z"/><path fill="#e0e0e0" d="M49.11 64.62l1.86 1.06v47.37l-1.86-1.06V64.62z"/><g fill="#f0f0f0"><path d="M88.61 83.28L55.8 102.23v-9.48L64 73.81l5.11 4.73-1.83 7.94 11.33-24.23 10 11.56v9.47z"/><path d="M68.8 64.66a5.34 5.34 0 00-2.42 4.2c0 1.55 1.08 2.18 2.42 1.4a5.33 5.33 0 002.43-4.2c0-1.55-1.08-2.18-2.43-1.4z"/></g><path fill="#fafafa" d="M52.58 171.53l1.83 1.08 37.42-21.6-1.83-1.09-37.42 21.61z"/><path fill="#fff" d="M90 149.92l-35.59 20.55v-37.28L90 112.66v37.26z"/><path d="M95.27 105.63L51 131.2v47.37L95.27 153zM91.83 151l-37.42 21.6v-39.41l37.42-21.6z" fill="#f0f0f0"/><path fill="#e0e0e0" d="M91.83 151.01L90 149.92v-37.26l1.83-1.07v39.42z"/><path fill="#fafafa" d="M95.27 105.63l-1.85-1.07-44.31 25.58 1.86 1.06 44.3-25.57z"/><path fill="#e0e0e0" d="M49.11 130.14l1.86 1.06v47.37l-1.86-1.06v-47.37z"/><g fill="#f0f0f0"><path d="M88.61 148.81L55.8 167.75v-9.47l8.2-18.95 5.11 4.74-1.83 7.94 11.33-24.23 10 11.55v9.48z"/><path d="M68.8 130.18a5.38 5.38 0 00-2.42 4.21c0 1.55 1.08 2.17 2.42 1.4a5.34 5.34 0 002.43-4.21c0-1.58-1.08-2.17-2.43-1.4z"/></g><g><path d="M409.38 341.43c-9.8-10.11-15.55-51.26-6-59.28H452c9.55 8 3.8 49.15-6 59.27l-.27.27-.34.34c-.27.27-.57.53-.88.79l-.24.19c-.24.19-.47.38-.74.56a13.52 13.52 0 01-1.26.82c-8.06 4.71-21.13 4.71-29.19 0a13.65 13.65 0 01-1.27-.82c-.25-.17-.47-.35-.69-.53l-.29-.23a10.69 10.69 0 01-.83-.81l-.39-.38z" fill="#ffc100"/><path d="M409.38 341.43c-9.8-10.11-15.55-51.26-6-59.28H452c9.55 8 3.8 49.15-6 59.27l-.27.27-.34.34c-.27.27-.57.53-.88.79l-.24.19c-.24.19-.47.38-.74.56a13.52 13.52 0 01-1.26.82c-8.06 4.71-21.13 4.71-29.19 0a13.65 13.65 0 01-1.27-.82c-.25-.17-.47-.35-.69-.53l-.29-.23a10.69 10.69 0 01-.83-.81l-.39-.38z" fill="#fff" opacity=".7"/><path d="M447.78 278.92c11.1 6.48 11.1 17 0 23.46s-29.08 6.48-40.17 0-11.1-17 0-23.46 29.08-6.47 40.17 0z" fill="#ffc100"/><path d="M447.78 278.92c11.1 6.48 11.1 17 0 23.46s-29.08 6.48-40.17 0-11.1-17 0-23.46 29.08-6.47 40.17 0z" fill="#fff" opacity=".85"/><path d="M442.45 282c8.14 4.76 8.14 12.47 0 17.23s-21.36 4.75-29.51 0-8.15-12.47 0-17.23 21.36-4.72 29.51 0z" fill="#ffc100"/><path d="M442.45 282c8.14 4.76 8.14 12.47 0 17.23s-21.36 4.75-29.51 0-8.15-12.47 0-17.23 21.36-4.72 29.51 0z" fill="#fff" opacity=".75"/><path d="M412.94 290.21c8.15-4.75 21.36-4.75 29.51 0a13.74 13.74 0 014.88 4.53 13.74 13.74 0 01-4.88 4.53c-8.15 4.75-21.36 4.75-29.51 0a13.74 13.74 0 01-4.88-4.53 13.74 13.74 0 014.88-4.53z" fill="#fafafa"/><g><path d="M428.81 288.73a32.45 32.45 0 003.27.41c4.08.18 9.09-1.85 13.58-3.84 3-1.31 7-3.09 8.87-6.16.94-1.51 1.3-3.6.42-5s-3.08-1.91-3.5-3.71c3.14-2.09 7.17-2.2 9.85-5a15.7 15.7 0 003.67-7.76c.37-1.71.37-4.05-.53-5.38-1.07-1.57-3.24-1.44-5.1-1.24a3.16 3.16 0 01-1.44-.08 1.21 1.21 0 01-.8-1.16 2.11 2.11 0 011.16-1.51c1.15-.75 2.38-1.34 3.49-2.16a7 7 0 002.63-3.27 9 9 0 00-.13-5 69.39 69.39 0 00-2.25-8c-.22-.63-1.85-7-1.62-7.06-6.51.18-13.2 2.57-19.25 5.67-3.38 1.73-8.19 4.86-9.17 9.24a8.39 8.39 0 00.11 3.67 13.54 13.54 0 00.58 1.54c.12.32.61 1.55-.22 1.14a1.19 1.19 0 01-.44-.45l-3.21-4.62a2.75 2.75 0 00-1.18-1.14c-1.08-.4-3.64.83-6.09 4a13.69 13.69 0 00-2.5 7.52c-.26 4.23 1 8.22 2.15 12.1l-2.9-3c-3.39-3.47-4 4.71-3.9 6.41.32 4.47 2.11 11.07 4.36 14.62 2.62 4.12 5.71 7.57 10.09 9.22z" fill="#ffc100"/><path d="M428.81 288.73a32.45 32.45 0 003.27.41c4.08.18 9.09-1.85 13.58-3.84 3-1.31 7-3.09 8.87-6.16.94-1.51 1.3-3.6.42-5s-3.08-1.91-3.5-3.71c3.14-2.09 7.17-2.2 9.85-5a15.7 15.7 0 003.67-7.76c.37-1.71.37-4.05-.53-5.38-1.07-1.57-3.24-1.44-5.1-1.24a3.16 3.16 0 01-1.44-.08 1.21 1.21 0 01-.8-1.16 2.11 2.11 0 011.16-1.51c1.15-.75 2.38-1.34 3.49-2.16a7 7 0 002.63-3.27 9 9 0 00-.13-5 69.39 69.39 0 00-2.25-8c-.22-.63-1.85-7-1.62-7.06-6.51.18-13.2 2.57-19.25 5.67-3.38 1.73-8.19 4.86-9.17 9.24a8.39 8.39 0 00.11 3.67 13.54 13.54 0 00.58 1.54c.12.32.61 1.55-.22 1.14a1.19 1.19 0 01-.44-.45l-3.21-4.62a2.75 2.75 0 00-1.18-1.14c-1.08-.4-3.64.83-6.09 4a13.69 13.69 0 00-2.5 7.52c-.26 4.23 1 8.22 2.15 12.1l-2.9-3c-3.39-3.47-4 4.71-3.9 6.41.32 4.47 2.11 11.07 4.36 14.62 2.62 4.12 5.71 7.57 10.09 9.22z" fill="#fff" opacity=".3"/><path d="M433.43 266.79a45.08 45.08 0 00-7.5-18.27l-.08-.13a.58.58 0 01.14-.75.44.44 0 01.67.08l.08.12a46.86 46.86 0 017.34 17.08c5.64-16 14.91-32.23 20.29-37.28a.49.49 0 01.73 0 .64.64 0 01-.1.81c-5.31 5-14.46 21-20 36.79 9.38-7.31 18.79-6.53 18.89-6.52a.48.48 0 01.4.58.65.65 0 01-.33.45.47.47 0 01-.24 0c-.09 0-9.91-.83-19.33 7.21-2.5 7.47-4.13 14.79-4.08 20.72a.66.66 0 01-.29.55.58.58 0 01-.22.08.48.48 0 01-.52-.52c-.06-5.95 1.6-13.39 4.15-21z" fill="#fff"/></g><g><path d="M429.12 296.72c-.29.14-2.58.66-2.9.72-3.64.62-8.17-.43-12.25-1.52-2.69-.71-6.31-1.69-8.11-4a3.62 3.62 0 01-.55-4c.79-1.32 2.68-1.91 3-3.43-2.87-1.32-6.48-.93-9-2.9a11 11 0 01-3.54-5.86 6 6 0 01.3-4.44c.89-1.4 2.84-1.54 4.5-1.6a3.32 3.32 0 001.29-.24 1.1 1.1 0 00.67-1c-.05-.53-.59-.87-1.08-1.09-1.06-.47-2.17-.8-3.2-1.33a5.22 5.22 0 01-2.45-2.35 6.74 6.74 0 010-4.05 56.12 56.12 0 011.73-6.78c.18-.53 1.42-5.94 1.21-5.92 5.81-.62 11.86.53 17.37 2.33 3.07 1 7.47 3 8.49 6.43a6.05 6.05 0 010 3 10.31 10.31 0 01-.46 1.32c-.09.27-.49 1.33.24.9a1.16 1.16 0 00.37-.42l2.71-4.17a2.71 2.71 0 011-1.06c.95-.46 3.28.24 5.57 2.52a9.64 9.64 0 012.49 5.81c.37 3.39-.58 6.78-1.52 10.07l2.49-2.76c2.91-3.22 3.75 3.35 3.7 4.75a30.44 30.44 0 01-3.4 12.38c-2.18 3.67-4.79 6.84-8.67 8.69z" fill="#ffc100"/><path d="M429.12 296.72c-.29.14-2.58.66-2.9.72-3.64.62-8.17-.43-12.25-1.52-2.69-.71-6.31-1.69-8.11-4a3.62 3.62 0 01-.55-4c.79-1.32 2.68-1.91 3-3.43-2.87-1.32-6.48-.93-9-2.9a11 11 0 01-3.54-5.86 6 6 0 01.3-4.44c.89-1.4 2.84-1.54 4.5-1.6a3.32 3.32 0 001.29-.24 1.1 1.1 0 00.67-1c-.05-.53-.59-.87-1.08-1.09-1.06-.47-2.17-.8-3.2-1.33a5.22 5.22 0 01-2.45-2.35 6.74 6.74 0 010-4.05 56.12 56.12 0 011.73-6.78c.18-.53 1.42-5.94 1.21-5.92 5.81-.62 11.86.53 17.37 2.33 3.07 1 7.47 3 8.49 6.43a6.05 6.05 0 010 3 10.31 10.31 0 01-.46 1.32c-.09.27-.49 1.33.24.9a1.16 1.16 0 00.37-.42l2.71-4.17a2.71 2.71 0 011-1.06c.95-.46 3.28.24 5.57 2.52a9.64 9.64 0 012.49 5.81c.37 3.39-.58 6.78-1.52 10.07l2.49-2.76c2.91-3.22 3.75 3.35 3.7 4.75a30.44 30.44 0 01-3.4 12.38c-2.18 3.67-4.79 6.84-8.67 8.69z" fill="#fff" opacity=".5"/><path d="M424.26 279.45a38.7 38.7 0 016.07-15.72l.07-.11a.44.44 0 00-.15-.6.43.43 0 00-.59.15l-.07.11a40.28 40.28 0 00-6 14.72c-5.58-12.31-14.4-24.41-19.36-27.87a.47.47 0 10-.54.76c4.9 3.42 13.61 15.37 19.09 27.52a26.67 26.67 0 00-17.08-3.07.43.43 0 000 .84.49.49 0 00.21 0 25.64 25.64 0 0117.49 3.57c2.49 5.78 4.19 11.53 4.34 16.35a.48.48 0 00.28.41.45.45 0 00.2 0 .46.46 0 00.45-.48c-.15-4.86-1.88-10.7-4.41-16.58z" fill="#fff"/></g></g><g><path d="M241.35 364.21l-9.7-80.94-7.93-.4 13.63 81.33a1.09 1.09 0 00.53.71 3.14 3.14 0 002.83.14 1 1 0 00.62-.84z" fill="#263238"/><path d="M231.65 283.27l-7.93-.4 2.33 15.35a31.1 31.1 0 004.7-2.16 4.87 4.87 0 002.09-1.79z" fill="#263238"/><path d="M126.33 271.4h-7.94l-11.55 76.43a1 1 0 00.58.87 3.14 3.14 0 002.83 0 1.05 1.05 0 00.56-.68z" fill="#37474f"/><path d="M118.39 271.4l-3.22 21.33a31.53 31.53 0 006.09 3.73l5.07-25.06z" fill="#263238"/><path d="M188.32 391.34L180.86 309l-7.92-.4 11.39 82.69a1.09 1.09 0 00.53.71 3.12 3.12 0 002.82.14 1 1 0 00.62-.84z" fill="#37474f"/><path d="M181.84 320.89l-1-11.85-7.92-.4 1.61 12.78c1.78.58 5 .21 7.31-.53zM169.64 246.22h-7.94l-11.54 76.43a1 1 0 00.57.87 3.14 3.14 0 002.83 0 1.08 1.08 0 00.56-.68z" fill="#263238"/><path d="M103.48 183.75a44.93 44.93 0 00-3.17 13.93c-.9 10.68 2.71 45.26 4.88 60.73 3.14 25.84 7 25.89 12.59 30.21 9.63 7.44 37.33 22 46.47 25.63 16.58 6.52 30.14-3.54 40.24-8.53a234.43 234.43 0 0026.77-15.85c2.52-1.84 3.83-3.7 3.8-5.65v-4.77c0-2.5-2.2-5.17-6.84-8.18-8.56-5.55-39.51-23.6-51.5-30.25a.12.12 0 00-.1-.09c-9.23-5.6-14.78-43.68-21.17-63.94-.13-.43-.27-.85-.41-1.26s-.23-.63-.33-.94c-.41-1.1-.82-2.11-1.26-3" fill="#ffc100"/><path d="M235.07 279.44c0-2.5-2.2-5.17-6.84-8.18-8.56-5.55-39.51-23.6-51.5-30.25a.12.12 0 00-.1-.09c-9.23-5.6-14.78-43.68-21.17-63.94a37.92 37.92 0 00-1.34-3.73c0-.09-.08-.18-.11-.27l-.37-.82-.18-.41a19.48 19.48 0 00-4.26-6.16 9.55 9.55 0 00-2.09-1.47c-1-.59-3.22-1.8-3.77-2.12-6.26-3.75-14.49.75-24.73 6.36-6.37 3.5-11.81 7.65-15.12 15.39a44.93 44.93 0 00-3.17 13.93c-.9 10.68 2.71 45.26 4.88 60.73 3.14 25.84 7 25.89 12.59 30.21 9.63 7.44 37.33 22 46.47 25.63 16.58 6.52 30.14-3.54 40.24-8.53a234.43 234.43 0 0026.77-15.85c2.52-1.84 3.83-3.7 3.8-5.65-.01-.79 0-3.96 0-4.78z" fill="#ffc100"/><path d="M235.07 279.44c0-2.5-2.2-5.17-6.84-8.18-8.56-5.55-39.51-23.6-51.5-30.25a.12.12 0 00-.1-.09c-9.23-5.6-14.78-43.68-21.17-63.94a37.92 37.92 0 00-1.34-3.73c0-.09-.08-.18-.11-.27l-.37-.82-.18-.41a19.48 19.48 0 00-4.26-6.16 9.55 9.55 0 00-2.09-1.47c-1-.59-3.22-1.8-3.77-2.12-6.26-3.75-14.49.75-24.73 6.36-6.37 3.5-11.81 7.65-15.12 15.39a44.93 44.93 0 00-3.17 13.93c-.9 10.68 2.71 45.26 4.88 60.73 3.14 25.84 7 25.89 12.59 30.21 9.63 7.44 37.33 22 46.47 25.63 16.58 6.52 30.14-3.54 40.24-8.53a234.43 234.43 0 0026.77-15.85c2.52-1.84 3.83-3.7 3.8-5.65-.01-.79 0-3.96 0-4.78z" fill="#fff" opacity=".25"/><path d="M204.49 300.91a235.71 235.71 0 0026.77-15.86c5.74-4.17 5.21-8.44-3-13.79-11.44-7.42-58.09-33.89-58.09-33.89s-59 34.8-56.43 41.23 39 26.31 50.53 30.83c16.57 6.57 30.12-3.53 40.22-8.52z" fill="#ffc100"/><path d="M204.49 300.91a235.71 235.71 0 0026.77-15.86c5.74-4.17 5.21-8.44-3-13.79-11.44-7.42-58.09-33.89-58.09-33.89s-59 34.8-56.43 41.23 39 26.31 50.53 30.83c16.57 6.57 30.12-3.53 40.22-8.52z" fill="#fff" opacity=".6"/><path d="M147.1 164.12c-6.21-3.26-14.28 1.17-24.26 6.64-6.39 3.5-11.84 7.65-15.14 15.42l-4.22-2.43c3.31-7.74 8.75-11.89 15.12-15.39 10.24-5.61 18.47-10.11 24.73-6.36.55.32 2.73 1.53 3.77 2.12z" fill="#ffc100"/><path d="M147.1 164.12c-6.21-3.26-14.28 1.17-24.26 6.64-6.39 3.5-11.84 7.65-15.14 15.42l-4.22-2.43c3.31-7.74 8.75-11.89 15.12-15.39 10.24-5.61 18.47-10.11 24.73-6.36.55.32 2.73 1.53 3.77 2.12z" fill="#fff" opacity=".5"/><path d="M155.46 177c-.13-.43-2.27-7.86-6.27-11.39a10.14 10.14 0 00-6.79-2.61c-5.42 0-11.93 3.59-19.56 7.76-.63.35-1.26.71-1.88 1.08-.24.13-.48.27-.71.42s-.57.35-.85.53-.41.26-.61.4a36.41 36.41 0 00-3.85 2.92c-.19.17-.38.34-.57.53a26 26 0 00-2.18 2.26c-.13.14-.25.29-.37.43s-.3.36-.43.54l-.42.56c-.14.18-.27.36-.41.56a28 28 0 00-1.52 2.44c-.06.11-.13.22-.18.33s-.24.45-.36.69-.33.68-.49 1a43.74 43.74 0 00-3.46 14.6c-1.48 17.55 4.53 75.54 10.56 80.54 0 0-.92-5.68 11.21-13.31 8.25-5.19 14-9.55 22.85-13.87 21.45-10.54 27.46-12.51 27.46-12.51-9.23-5.58-14.78-43.66-21.17-63.9z" fill="#ffc100"/><path d="M155.46 177c-.13-.43-2.27-7.86-6.27-11.39a10.14 10.14 0 00-6.79-2.61c-5.42 0-11.93 3.59-19.56 7.76-.63.35-1.26.71-1.88 1.08-.24.13-.48.27-.71.42s-.57.35-.85.53-.41.26-.61.4a36.41 36.41 0 00-3.85 2.92c-.19.17-.38.34-.57.53a26 26 0 00-2.18 2.26c-.13.14-.25.29-.37.43s-.3.36-.43.54l-.42.56c-.14.18-.27.36-.41.56a28 28 0 00-1.52 2.44c-.06.11-.13.22-.18.33s-.24.45-.36.69-.33.68-.49 1a43.74 43.74 0 00-3.46 14.6c-1.48 17.55 4.53 75.54 10.56 80.54 0 0-.92-5.68 11.21-13.31 8.25-5.19 14-9.55 22.85-13.87 21.45-10.54 27.46-12.51 27.46-12.51-9.23-5.58-14.78-43.66-21.17-63.9z" fill="#fff" opacity=".4"/><path d="M235.06 284.21c0 2-1.28 3.81-3.8 5.65a235 235 0 01-26.76 15.85c-5.26 2.6-11.45 6.56-18.51 8.84-16.92-9.91-46.16-27.26-53.34-33a24.83 24.83 0 01-8.19-13 58.77 58.77 0 01-1.38-18.22c-6.09-2.34-7.07-9.2-7.91-17.75-2.23-22.58-2.35-50.27 3.62-59.36.2-.14.4-.28.61-.41l.85-.52c.23-.15.46-.29.7-.42q.93-.56 1.89-1.08c7.63-4.2 14.16-7.79 19.56-7.79a10.25 10.25 0 016.37 2.22l.41.35a17.16 17.16 0 013.46 4.58c.14.25.27.51.4.76a.89.89 0 01.08.17c.12.22.22.44.33.66l.12.25.07.15.18.42c.22.5.42 1 .59 1.41l.13.3c.13.36.25.68.35 1l.1.27.09.27c0 .07 0 .15.08.22l.07.22.08.26c0 .07 0 .13.05.18a2.51 2.51 0 01.1.29c6.39 20.27 11.94 58.35 21.17 63.94a.13.13 0 01.1.11c12 6.64 42.94 24.68 51.5 30.24 4.64 3 6.83 5.69 6.84 8.18 0 .81-.02 3.98-.01 4.76z" opacity=".1"/><g><path d="M215.63 344.71l.91 28s-2.77 5.94-9.28 6.43-7.55-6.05-7.55-6.05l-6-30.22z" fill="#ffa8a7"/><path d="M198.53 385.22a5.2 5.2 0 00.22 2.66c.5 1.21 3.89 3.44 5.63 4.33s3.08 2.25 4.6 4.91c2.08 3.65 5.22 7.58 9.2 9.47a28.77 28.77 0 0017 2c7.15-1.18 7.79-5.38 7.79-5.38s.43-3.95-1.33-4.6-43.11-13.39-43.11-13.39z" fill="#263238"/><path d="M197.62 380.33a11.48 11.48 0 00.91 4.89c2.06 2.94 7 4 9.82 8s6.13 10.19 15.45 12.18 16.45-.88 18.21-3.52.22-5.16-5.72-8.48c-6.31-3.52-13.73-12.78-13.73-12.79-2.44-3.17-3.48-7.35-4.82-11.06-.14-.37-.35-.79-.73-.8s-.68.55-.92.94a3 3 0 01-1.8 1.11 23.2 23.2 0 01-2.47.7 22.94 22.94 0 01-5.09.55 2.1 2.1 0 00-1.6.42 1.83 1.83 0 00-.32 1.42 14.87 14.87 0 00.24 1.88 1.91 1.91 0 010 .92 1.13 1.13 0 01-1.07.7 2.49 2.49 0 01-1.28-.41 5.66 5.66 0 01-3-3.84s-.35-1.74-.35-1.82a2.07 2.07 0 00-1 1.34c-.18.72-.12 1.49-.24 2.22a38.53 38.53 0 00-.49 5.45z" fill="#ffc100"/><path d="M197.62 380.33a11.48 11.48 0 00.91 4.89c2.06 2.94 7 4 9.82 8s6.13 10.19 15.45 12.18 16.45-.88 18.21-3.52.22-5.16-5.72-8.48c-6.31-3.52-13.73-12.78-13.73-12.79-2.44-3.17-3.48-7.35-4.82-11.06-.14-.37-.35-.79-.73-.8s-.68.55-.92.94a3 3 0 01-1.8 1.11 23.2 23.2 0 01-2.47.7 22.94 22.94 0 01-5.09.55 2.1 2.1 0 00-1.6.42 1.83 1.83 0 00-.32 1.42 14.87 14.87 0 00.24 1.88 1.91 1.91 0 010 .92 1.13 1.13 0 01-1.07.7 2.49 2.49 0 01-1.28-.41 5.66 5.66 0 01-3-3.84l-.35-1.82a2.07 2.07 0 00-1 1.34c-.18.72-.12 1.49-.24 2.22a38.53 38.53 0 00-.49 5.45z" opacity=".3"/><path d="M255.73 319.89l4.17 39.31s-5.69 5.77-10.41 5.11a7 7 0 01-5.87-4.22L232 322.38z" fill="#ffa8a7"/><path d="M243.63 371.19a5.32 5.32 0 00.51 2.62c.63 1.15 4.24 3 6.07 3.7s3.31 1.9 5.1 4.38c2.46 3.41 6 7 10.17 8.43a28.83 28.83 0 0017.14.15c7-2 7.16-6.19 7.16-6.19s0-4-1.82-4.43-44.33-8.66-44.33-8.66z" fill="#263238"/><path d="M242.21 366.43a11.45 11.45 0 001.42 4.76c2.37 2.7 7.4 3.19 10.63 6.88s7.2 9.47 16.68 10.44 16.25-2.66 17.72-5.47-.33-5.15-6.6-7.81c-6.65-2.82-15-11.23-15-11.23-2.77-2.9-4.25-6.93-6-10.49-.17-.34-.43-.74-.81-.71s-.61.62-.81 1a3 3 0 01-1.67 1.29 21.14 21.14 0 01-2.38 1 22 22 0 01-5 1.1 2.1 2.1 0 00-1.55.59 1.9 1.9 0 00-.17 1.45 14.52 14.52 0 00.45 1.84 1.92 1.92 0 01.13.91 1.15 1.15 0 01-1 .82 2.47 2.47 0 01-1.32-.28c-1.63-.74-3.06-1.68-3.59-3.41 0 0-.27-.91-.55-1.75a1.71 1.71 0 00-.63 1.34c-.1.73 0 1.49 0 2.23a36.08 36.08 0 00.05 5.5z" fill="#ffc100"/><path d="M242.21 366.43a11.45 11.45 0 001.42 4.76c2.37 2.7 7.4 3.19 10.63 6.88s7.2 9.47 16.68 10.44 16.25-2.66 17.72-5.47-.33-5.15-6.6-7.81c-6.65-2.82-15-11.23-15-11.23-2.77-2.9-4.25-6.93-6-10.49-.17-.34-.43-.74-.81-.71s-.61.62-.81 1a3 3 0 01-1.67 1.29 21.14 21.14 0 01-2.38 1 22 22 0 01-5 1.1 2.1 2.1 0 00-1.55.59 1.9 1.9 0 00-.17 1.45 14.52 14.52 0 00.45 1.84 1.92 1.92 0 01.13.91 1.15 1.15 0 01-1 .82 2.47 2.47 0 01-1.32-.28c-1.63-.74-3.06-1.68-3.59-3.41 0 0-.27-.91-.55-1.75a1.71 1.71 0 00-.63 1.34c-.1.73 0 1.49 0 2.23a36.08 36.08 0 00.05 5.5z" opacity=".3"/><path d="M127.29 240l22.94-2.52 44.43 2.4s26.68 17.06 46.05 30.68c5.63 4 11.59 8.3 12.58 16.59 1.4 11.77 5.19 53.52 5.19 53.52-3.88 4.29-13.79 6-19.87 4.87-1.86-4.82-6.4-19.67-8.56-26.29a123.33 123.33 0 01-4.59-21.52L197.21 280c6.22 6.33 8.26 8.39 11.52 11.68 2.86 2.89 4.75 6.53 5.59 15.89 1.67 18.56 1.79 44 2 49.69-2.34 3.27-11.81 7.58-19.31 3.81-2.56-9.94-3.71-14.8-5.93-24.06-4.28-17.9-2.75-23.87-3.6-27.74a305.66 305.66 0 01-30.06-17.37c-6.67-4.38-16-9.15-20.71-14.08-8.84-9.2-8.83-22.65-9.42-37.82z" fill="#37474f"/><path d="M197.21 280l-16-18.11s8.51-2.87 13-13.91c0 0-1 10.47-7.27 15.07l7.47 10.12 31 24.54z" fill="#263238"/><path d="M215.91 402c.28-4.48 4-9.15 11.09-10.66s10.76 1.6 12.43 2.83 6.34 5.49 2 9.07-9.51 3.85-14.91 3.12-9.12-2.61-10.61-4.36zM262.69 386c-.06-4.49 3.63-10.39 10.56-12.42s10.54 1.16 12.29 2.26 6.74 5 2.71 8.9-9.2 4.5-14.66 4.58c-3.66.01-9.29-1.71-10.9-3.32z" fill="#fafafa"/></g><g><path d="M195 160.63c-4.28-4.25-10.17-8.1-14-8.55a32.89 32.89 0 00-9.65.11l14.83 33S207 202 217.32 209.26l3.31-23.26s-18.44-18.19-25.63-25.37z" fill="#ffa8a7"/><path d="M188.26 154.26c-4.8-3.52-9.68-3.89-17.37-3l12.75 33.21 15.26 10.83s-.1-3.83 2.75-9.14a20.13 20.13 0 019.95-9.1s-18.54-19.27-23.34-22.8z" fill="#ffc100"/><path d="M188.26 154.26c-4.8-3.52-9.68-3.89-17.37-3l12.75 33.21 15.26 10.83s-.1-3.83 2.75-9.14a20.13 20.13 0 019.95-9.1s-18.54-19.27-23.34-22.8z" opacity=".2"/><path d="M189.84 178.75c.7-17.6-9.54-26.16-19-27.47 0 0-3.86.54-7.61 1.26-7.39 1.41-23.18 6.08-29.79 9.81-5.63 3.17-6.17 6.9-7.16 16.15-.71 6.6-1.17 11.48-1 31.51.09 14.65 1.86 29.66 2.24 39.77 12.8 9 53.55 7.81 68.3-9.19-5.37-9.4-8.61-16.24-8.36-25.26.44-16.14 2.03-27.69 2.38-36.58z" fill="#ffc100"/><g><path d="M193.15 105.57c0-.1 0-.2-.05-.3-.52-2.19-3 .17-4.41.08.18-.78 1-1.31 1.3-2a10.43 10.43 0 00.86-3 11.18 11.18 0 00-.16-4.61c-1.25.46-2.39 1.18-3.66 1.63a17.56 17.56 0 01-6.36.88 123.55 123.55 0 01-14.23-1.3 31.38 31.38 0 00-9.43 0 17.44 17.44 0 00-7.66 3.21c-3 2.51-4 4.74-4.07 9.22-2.9 1.75-3.56 5.21-3.64 9.1-.1 4.81 2.36 9.23 4.33 13.48 0 0 5 10.79 6.16 12.91 1.36 2.45 2.56 4.51 2.56 4.51l-.82-9.09c3.3-.41 6 .51 9.09-.78a57.33 57.33 0 008.42-4.35 83.07 83.07 0 008.08-5.73 13.94 13.94 0 011.78-1.41c.48-.26.94-.26 1.35-.64.84-.79 1.1-2.27 1.53-3.29a13.92 13.92 0 01.83-2.24c.38-.57 1.16-.81 1.75-1.16a8.48 8.48 0 003.83-4.62c.49-1.38.76-3.71-.2-5 1.11-1.63 3.12-3.35 2.82-5.5z" fill="#455a64"/><path d="M160.79 112.32c.1 2.84-1.38 9.18-5.87 11.55a19.89 19.89 0 01.3 8 5.37 5.37 0 01-.66 2 2.34 2.34 0 01-1.64 1.13c-.93.1-1.33-.45-1.64-1.16a22.54 22.54 0 00-1.51-2.65 5.21 5.21 0 00-.86-1c-1.45-1.25-5.68-2.69-7.45 1.82-1.83 4.67 2.44 9.6 5.84 10.37 4.52 1 5.75-2.22 5.75-2.22l-2.39 19c1.8 4.8 11.76 11.43 19 10.23s3.44-7.2.89-10.59l1.35-6s6.5.5 10.32-.38c3-.7 5.35-3.6 6.43-8.22 2-8.81 1.2-21.17-.11-26.61s-2.6-6.31-3.62-7.54c-.32 1.61-2.14 3.58-6.94 4.58-6.88 1.37-12.67-.63-17.19-2.31z" fill="#ffa8a7"/><path d="M171.86 152.73c-5.31-.83-10-2-12.87-3.81-2.12-1.31-3.8-5.06-4.29-6.38 0 0-.17 5 2.61 7.9 3.94 4.17 13.94 5 13.94 5z" fill="#f28f8f"/><path d="M168 121.64l-4.69 2.23a2.72 2.72 0 011.28-3.55 2.52 2.52 0 013.41 1.32z" fill="#455a64"/><path d="M168.63 140l6.66 2.46a3.49 3.49 0 01-4.51 2.23 3.72 3.72 0 01-2.15-4.69z" fill="#b16668"/><path d="M172.58 144.81a3.15 3.15 0 00-3.26-3 3 3 0 00-.8.15 3.63 3.63 0 002.26 2.69 3.38 3.38 0 001.8.16z" fill="#f28f8f"/><path d="M186.32 123.39l-4.45-2.47a2.46 2.46 0 013.39-1 2.58 2.58 0 011.06 3.47z" fill="#455a64"/><path fill="#f28f8f" d="M175.21 138.51l6.98-2.29-7.89-12.83.91 15.12z"/><path d="M181.29 127.35a2 2 0 102-2 2 2 0 00-2 2zM165.53 127.77a2 2 0 102.05-2 2.05 2.05 0 00-2.05 2z" fill="#263238"/></g></g><g><path fill="#263238" d="M221.08 343.98v103l-3.44-1.99v-103l3.44 1.99z"/><path fill="#37474f" d="M221.08 343.98v103l3.44-1.99v-103l-3.44 1.99z"/><path fill="#263238" d="M123.8 287.72v103l-3.44-1.99v-103l3.44 1.99z"/><path fill="#37474f" d="M123.8 287.72v103l3.44-1.99v-103l-3.44 1.99z"/><path fill="#263238" d="M387.74 247.76v103l-3.44-1.99V245.78l3.44 1.98z"/><path fill="#37474f" d="M387.74 247.76v103l3.44-1.99V245.78l-3.44 1.98zM221.08 337.85v12.26l-100.72-58.25V279.6l100.72 58.25z"/><path fill="#455a64" d="M221.08 350.11l170.11-98.2v-12.26l-170.11 98.2v12.26z"/><path fill="#ffc100" d="M221.63 335.56l-105.28-60.79 173.48-99.83 105.29 60.79-173.49 99.83z"/><path fill="#fff" d="M221.63 335.56l-105.28-60.79 173.48-99.83 105.29 60.79-173.49 99.83z" opacity=".8"/><path fill="#ffc100" d="M116.35 274.75v8.65l105.28 60.77v-8.63l-105.28-60.79z"/><path fill="#fff" d="M116.35 274.75v8.65l105.28 60.77v-8.63l-105.28-60.79z" opacity=".5"/><path fill="#ffc100" d="M221.63 344.17l173.49-99.74v-8.72l-173.49 99.83v8.63z"/><path fill="#fff" d="M221.63 344.17l173.49-99.74v-8.72l-173.49 99.83v8.63z" opacity=".65"/></g><path d="M220.63 186a49.47 49.47 0 00-1.24 14.57s-3.58-9.1-1.21-17z" fill="#f28f8f"/><path d="M256.69 128.31c.06-1-.69-1.24-1.48-1.2a5.82 5.82 0 00-3.21 1.29 37.86 37.86 0 00-3.88 4.13c-2 2.07-5.2 5.45-8 6.21-.58.15-1.82.3-1.27-.65a25.49 25.49 0 002-3.78 5.13 5.13 0 000-4.17 1.77 1.77 0 00-.91-.88c-.58-.2-.83.12-1.11.52a13.62 13.62 0 01-1 1.15c-.72.77-1.44 1.55-2.15 2.33-4.13 4.57-8.11 9.65-9.46 15.8-.2.89-.94 7.67-1.58 11.56-.41 3.49-4 25.38-4 25.38l-3.31 23.26c9.35 6.54 14.68 3.28 16.22.62 2.56-4.4 4.88-6.33 5.18-32.59.05-2.43 0-4.86.05-7.29a53.14 53.14 0 01.77-9.32c.67-3.1 3.08-4.05 4.63-5.14a28.33 28.33 0 005.89-5.14 26 26 0 004-5.53 8 8 0 001.26-3.08 22.06 22.06 0 01-.33-2.74c.12-1.08.74-2.08.74-3.16a10.26 10.26 0 00-.61-2.47c-.35-1.31.2-2.31.84-3.42a3.93 3.93 0 00.72-1.69z" fill="#ffa8a7"/><path d="M237.78 142.29c-.16 3.55-2.22 8.17-3.76 9.81a11 11 0 003.58-4.43c1.03-2.8.75-4.15.18-5.38z" fill="#f28f8f"/><g><path d="M298.7 249.86l-43.3-25a2.51 2.51 0 00-2.49 0l-75.13 43.39a.55.55 0 000 .95l43.71 25.25z" opacity=".2"/><path d="M295.47 244.6v1a4 4 0 01-2 3.47l-70 40.4a4.06 4.06 0 01-4 0l-38.15-22a4 4 0 01-2-3.46v-1.35a.49.49 0 00.25.44l41.89 24.2z" fill="#37474f"/><path d="M295.47 244.59l-41.49-24a2.38 2.38 0 00-2.39 0l-72 41.57a.53.53 0 000 .92l41.88 24.18z" fill="#455a64"/><path fill="#37474f" d="M221.11 283.79l-22.38-12.91 65.44-37.78 22.5 12.84-65.56 37.85z"/><path fill="#263238" d="M286.67 245.94l-.86.49-21.64-12.35-64.58 37.29-.86-.49 65.44-37.79 22.5 12.85zM210.11 247.88l.41.24 10.97 6.33L241 243.19l.4-.23-11.38-6.58-19.91 11.5z"/><path fill="#37474f" d="M210.52 248.12l10.97 6.33L241 243.19l-10.98-6.34-19.5 11.27z"/><path d="M221.49 287.31V290a4 4 0 002-.53l70-40.4a4 4 0 002-3.47v-1z" fill="#263238"/><g><path d="M184 257.53s1 .51 2.57 1.14c1.44.56 2.72 1.7 6.14 2.81 4.06 1.31 9.3-.09 12.84-.23s9.53 1.6 12.8 3 7.28-3.62 8.92-3 4.52-.65 1.54-3.69-7.29-7.25-10.95-8.53a19.85 19.85 0 00-2.57-.84 28.72 28.72 0 003.79-.7 6.69 6.69 0 003.23-2.07c.32-.41.56-1.06.16-1.4a.91.91 0 00-.52-.2c-2.76-.12-4.92-.58-7.43-.8a10.3 10.3 0 00-3.37 0c-1 .26-2.06.55-3.08.88-4.59 1.51-10.77 1.41-14.23 1.34-1.42 0-4.75-.58-4.75-.58-.84-.08-1.69 1.22-3.25 4.56-2.52 5.27-1.84 8.31-1.84 8.31z" fill="#ffa8a7"/><path d="M213.74 246.21a12.44 12.44 0 00-5 .73 27.52 27.52 0 016.53 1.24 28.72 28.72 0 003.79-.7 7 7 0 002.93-1.73c-1.99 1.32-5.87.73-8.25.46z" fill="#f28f8f"/><path d="M189.63 260.27c-4.46-2.31-26.79-4.93-35.14-7.18a138.22 138.22 0 01-14.75-4.74c-3.26-1.27-5.28-3.11-7.27-10.84s-10.47-39.65-11.39-49.14.08-14.48 3.45-18.9c2.47-3.24 9.1-6.47 9.1-6.47s7.91 3.95 10.76 15.34 2.7 17.63 2.7 17.63l8.07 34.61 17.41 7.28c8 3.32 14.91 6.54 18.47 7.1s-1.41 15.31-1.41 15.31z" fill="#ffa8a7"/><path d="M133.9 162.12c-7.1 3.48-10.74 6.67-12.71 12.35s-.91 13.81.46 21 4.55 20.4 4.55 20.4 3.64 1.06 13.19-1.37 11.23-5.91 11.23-5.91l-2.81-14.19s.09-26.81-13.91-32.28z" fill="#ffc100"/><path d="M133.9 162.12c-7.1 3.48-10.74 6.67-12.71 12.35s-.91 13.81.46 21 4.55 20.4 4.55 20.4 3.64 1.06 13.19-1.37 11.23-5.91 11.23-5.91l-2.81-14.19s.09-26.81-13.91-32.28z" opacity=".2"/></g><path d="M222.62 287.9a4.73 4.73 0 004.08-.32l69.68-40.22a4.76 4.76 0 002.3-3.32l7.63-45.49a4.9 4.9 0 00.06-.77 4.73 4.73 0 00-1.4-3.37l-72.41 41.81a3.53 3.53 0 00-1.7 2.45z" fill="#37474f"/><path d="M221.49 287.31l.48.27a4.9 4.9 0 00.65.32l8.24-49.23a3.53 3.53 0 011.7-2.45L305 194.41a5 5 0 00-1-.74l-72.56 41.89a3.52 3.52 0 00-1.7 2.45z" fill="#455a64"/><path d="M231.53 237.15l-1.12-.65a3.43 3.43 0 00-.66 1.51l-8.26 49.3.48.27a4.9 4.9 0 00.65.32l8.24-49.23a3.6 3.6 0 01.67-1.52z" fill="#263238"/><path d="M261.86 245.91c.51-3 3.65-7.09 7-9s5.69-1.05 5.18 2-3.66 7.09-7 9-5.69 1.09-5.18-2z" fill="#ffc100"/></g></g><g><path d="M59.21 400.64c0-8.73 12.58-15.81 28.11-15.81s28.11 7.08 28.11 15.81v2.07c0 8.73-12.58 15.81-28.11 15.81s-28.11-7.08-28.11-15.81z" fill="#ffc100"/><path d="M59.21 400.64c0-8.73 12.58-15.81 28.11-15.81s28.11 7.08 28.11 15.81v2.07c0 8.73-12.58 15.81-28.11 15.81s-28.11-7.08-28.11-15.81z" fill="#fff" opacity=".6"/><path d="M59.21 400.64c0-8.73 12.58-15.81 28.11-15.81s28.11 7.08 28.11 15.81v2.07c0 8.73-12.58 15.81-28.11 15.81s-28.11-7.08-28.11-15.81z" opacity=".1"/><path d="M59.21 400.64c0 8.73 12.58 15.8 28.11 15.8s28.11-7.07 28.11-15.8-12.58-15.81-28.11-15.81-28.11 7.08-28.11 15.81z" fill="#ffc100"/><path d="M59.21 400.64c0 8.73 12.58 15.8 28.11 15.8s28.11-7.07 28.11-15.8-12.58-15.81-28.11-15.81-28.11 7.08-28.11 15.81z" fill="#fff" opacity=".75"/><path d="M59.21 400.64c0 8.73 12.58 15.8 28.11 15.8s28.11-7.07 28.11-15.8-12.58-15.81-28.11-15.81-28.11 7.08-28.11 15.81z" opacity=".05"/><path d="M113.42 355.1a.6.6 0 00.6-.51l3.66-26.82a.6.6 0 00-.51-.68.61.61 0 00-.68.51l-3.66 26.81a.61.61 0 00.5.69zM107.51 361.36a.6.6 0 00.59-.54l3.61-34.55a.6.6 0 00-1.19-.13l-3.61 34.56a.6.6 0 00.53.66zM100.17 364.91a.6.6 0 00.6-.56l2.68-42.35a.61.61 0 00-.57-.64.57.57 0 00-.63.56l-2.68 42.32a.6.6 0 00.56.64zM91.73 366.67a.6.6 0 00.6-.58l.88-46a.61.61 0 00-.59-.61.55.55 0 00-.61.59l-.88 46a.6.6 0 00.59.61zM60.52 355.1a.59.59 0 01-.59-.51l-3.66-26.82a.6.6 0 01.5-.68.61.61 0 01.68.51l3.67 26.81a.61.61 0 01-.51.69zM66.44 361.36a.6.6 0 01-.6-.54l-3.61-34.55a.6.6 0 01.53-.66.59.59 0 01.66.53L67 360.7a.61.61 0 01-.54.66zM73.78 364.91a.59.59 0 01-.6-.56L70.5 322a.6.6 0 01.56-.64.58.58 0 01.64.56l2.67 42.32a.6.6 0 01-.56.64zM82.21 366.67a.6.6 0 01-.6-.58l-.87-46a.59.59 0 01.58-.61.56.56 0 01.62.59l.87 46a.59.59 0 01-.58.61z" fill="#fafafa"/><path d="M113.4 372.94c-1.52-1.87-3.57-3.64-4.08-6.11-.39-1.88-.32-4-1.44-5.53a17 17 0 00-2.9-2.58 8.58 8.58 0 01-1.88-10c-1.72-.65-3.67.22-5.06 1.42s-2.5 2.74-4 3.81c-2 1.46-4.62 1.9-6.94 2.86s-4.62 2.83-4.69 5.34c-.06 2.3 1.73 4.83.36 6.68-2.11 2.84-7.59.21-7.37 5.31.09 1.94.77 2.91-1.23 4.28s-4.89.63-7 2.06a7.63 7.63 0 00-2.29 3.29c-.67 1.46-1.34 2.92-1.87 4.44a19.54 19.54 0 00-.43 12.34c.57 1.75 1.53 4.31 3.37 4.89 2.49.79 4.81 0 7.07 1.85.91.75 1.58 1.74 2.46 2.51a9.11 9.11 0 005.92 2c1.71 0 3.36-.63 5-.66a12.64 12.64 0 013.31.74c2.46.58 5.55.57 7.4-1.43 1.33-1.43 1.8-3.7 3.54-4.59s4 .17 6.07.11c3.45-.08 6-3.51 6.55-6.92s-.33-6.85-.75-10.28c-.57-4.53 2.72-7.89 2.56-12.06a6.48 6.48 0 00-1.68-3.77z" fill="#fafafa"/><path d="M113.4 372.94c-.63-.77-1.35-1.53-2-2.33-.67 2.16-2.17 4-3 6.08-1 2.51-1 5.3-1.06 8v8.84a2.23 2.23 0 01-.39 1.52c-.7.76-2 .18-2.7-.58s-1.41-1.74-2.44-1.76c-1.22 0-2.21 1.37-3.41 1.13s-1.45-1.7-1-2.71a8.92 8.92 0 012.16-2.48 3.31 3.31 0 001.21-2.92c-3.35-.43-6.27 2.14-8.67 4.52-1.06 1-2.21 2.51-1.59 3.86.47 1 1.78 1.44 2.34 2.43a2.78 2.78 0 01-1 3.43 8.11 8.11 0 01-3.85 1.19 6.64 6.64 0 01-2.7 0 2.3 2.3 0 01-1.79-1.82c-.08-.91.86-1.84 1.71-1.51-1.57-1.15-3.27-2.34-5.21-2.39s-4 1.64-3.61 3.54l-7.73-.17c1.06-1.53-.19-3.57-1.5-4.89a10.76 10.76 0 01-2.17-2.59 3.07 3.07 0 01.1-3.24c.66-.84 1.95-1.27 2.11-2.33a1.74 1.74 0 00-1.5-1.77 2.72 2.72 0 00-.9 0c-.64 1.4-1.28 2.8-1.78 4.25a19.54 19.54 0 00-.43 12.34c.57 1.75 1.53 4.31 3.37 4.89 2.49.79 4.81 0 7.07 1.85.91.75 1.58 1.74 2.46 2.51a9.11 9.11 0 005.92 2c1.71 0 3.36-.63 5-.66a12.64 12.64 0 013.31.74c2.46.58 5.55.57 7.4-1.43 1.33-1.43 1.8-3.7 3.54-4.59s4 .17 6.07.11c3.45-.08 6-3.51 6.55-6.92s-.33-6.85-.75-10.28c-.57-4.53 2.72-7.89 2.56-12.06a6.48 6.48 0 00-1.7-3.8z" fill="#ebebeb"/><path d="M75 383.07a2.81 2.81 0 01.43 2.32 8.41 8.41 0 00-.33 1.19.92.92 0 00.56 1 1.39 1.39 0 00.95-.27 3.75 3.75 0 012.61-.54 1.86 1.86 0 011.49 2 3.69 3.69 0 000-3.65 2.39 2.39 0 00-3.32-.71 2.17 2.17 0 00-1.29-2.57 3.59 3.59 0 00-2.87.11 3.53 3.53 0 011.77 1.12zM87.76 374.9c-.32.22-.69.36-1 .61a1 1 0 00-.46 1c.69-.11 1.3.47 1.68 1.05a3.92 3.92 0 001.34 1.58c.51.25 1.15.21 1.6.55.66.52.55 1.53.37 2.35l3.27-2.19a2.3 2.3 0 00.53-.45 1.41 1.41 0 00-.33-1.83 3.19 3.19 0 00-1.91-.62 9.85 9.85 0 01-2-.21.53.53 0 01-.39-.3c-.08-.26.24-.47.5-.57l3.15-1.19a.49.49 0 000-.71 1.33 1.33 0 00-.73-.27 43.62 43.62 0 00-6.07-1c.02.85 2.04 1.11.45 2.2zM95.56 361.76c-1.69-.26-3.68.62-4 2.28 1.39.09 2.46 1.23 3.37 2.3l1.4 1.66a4 4 0 011.06 1.79c.12.64 0 1.37.34 1.9a2.13 2.13 0 001.07.64 2.83 2.83 0 002.61 0 1.91 1.91 0 00.51-2.08 5.84 5.84 0 00-1.26-1.9 7.93 7.93 0 014.64.42 1.5 1.5 0 001.12.18 1.07 1.07 0 00.55-.73 2.67 2.67 0 00-1.09-2.69 5.05 5.05 0 00-2.92-.83c-2.96.02-4.55-2.5-7.4-2.94z" fill="#ebebeb"/><path d="M114 402.17l7.33-50.12a.6.6 0 00-.51-.68.61.61 0 00-.68.51L112.83 402a.6.6 0 00.5.68h.09a.61.61 0 00.6-.52M107.51 408.94a.6.6 0 00.59-.53l5.24-50.12a.6.6 0 00-.53-.66.59.59 0 00-.66.53l-5.24 50.12a.59.59 0 00.53.66zM100.17 412.5a.61.61 0 00.6-.57l3.14-50.12a.59.59 0 00-.56-.63.58.58 0 00-.64.56l-3.14 50.12a.61.61 0 00.56.64zM91.73 414.26a.6.6 0 00.6-.59l1-50.12a.6.6 0 00-.59-.61.55.55 0 00-.61.59l-1.05 50.12a.6.6 0 00.59.61zM82.91 414.26a.6.6 0 00.59-.61l-1.05-50.12a.6.6 0 00-.6-.59.6.6 0 00-.59.61l1 50.12a.6.6 0 00.65.59zM74.47 412.5a.61.61 0 00.56-.64l-3.14-50.12a.56.56 0 00-.64-.56.59.59 0 00-.56.63l3.14 50.12a.61.61 0 00.64.57zM67.13 408.94h.07a.59.59 0 00.53-.66l-5.24-50.12a.58.58 0 00-.66-.53.59.59 0 00-.53.66l5.24 50.12a.6.6 0 00.59.53zM61.22 402.69h.08a.6.6 0 00.51-.68l-7.33-50.12a.61.61 0 00-.68-.51.6.6 0 00-.51.68l7.33 50.12a.61.61 0 00.6.51z" fill="#fafafa"/><path d="M48.21 342.23a14.87 14.87 0 002.36 5.51 26.15 26.15 0 008.9 7.9c15.37 8.87 40.32 8.87 55.71 0a26.2 26.2 0 008.89-7.9 15.38 15.38 0 002.36-5.51c1.37-6.68-2.39-13.64-11.26-18.76-15.39-8.89-40.34-8.89-55.71 0-8.87 5.12-12.62 12.08-11.25 18.76zM64.1 353c-4.95-2.87-8-6.41-9.11-10.11 1.1-4 4.14-7.79 9.11-10.88 12.82-7.94 33.61-7.94 46.43 0 5 3.09 8 6.91 9.11 10.89-1.12 3.7-4.17 7.24-9.12 10.1-12.81 7.35-33.6 7.35-46.42 0z" fill="#ffc100"/><path d="M48.21 342.23a14.87 14.87 0 002.36 5.51 26.15 26.15 0 008.9 7.9c15.37 8.87 40.32 8.87 55.71 0a26.2 26.2 0 008.89-7.9 15.38 15.38 0 002.36-5.51c1.37-6.68-2.39-13.64-11.26-18.76-15.39-8.89-40.34-8.89-55.71 0-8.87 5.12-12.62 12.08-11.25 18.76zM64.1 353c-4.95-2.87-8-6.41-9.11-10.11 1.1-4 4.14-7.79 9.11-10.88 12.82-7.94 33.61-7.94 46.43 0 5 3.09 8 6.91 9.11 10.89-1.12 3.7-4.17 7.24-9.12 10.1-12.81 7.35-33.6 7.35-46.42 0z" fill="#fff" opacity=".75"/><path d="M50.57 347.73a26.19 26.19 0 008.89 7.9c15.39 8.88 40.33 8.88 55.72 0a26.19 26.19 0 008.89-7.9 14.9 14.9 0 002.35-5.5l-1.74 6.95c-.8 4.83-4.4 9.54-10.83 13.25-14.66 8.45-38.42 8.45-53.08 0-6.34-3.66-9.94-8.31-10.79-13.08l-.09-.62-1.7-6.5a15 15 0 002.38 5.5z" fill="#ffc100"/><path d="M50.57 347.73a26.19 26.19 0 008.89 7.9c15.39 8.88 40.33 8.88 55.72 0a26.19 26.19 0 008.89-7.9 14.9 14.9 0 002.35-5.5l-1.74 6.95c-.8 4.83-4.4 9.54-10.83 13.25-14.66 8.45-38.42 8.45-53.08 0-6.34-3.66-9.94-8.31-10.79-13.08l-.09-.62-1.7-6.5a15 15 0 002.38 5.5z" fill="#fff" opacity=".6"/><path d="M54.66 341.47c.09.46.2.91.33 1.37 1.1-4 4.14-7.79 9.11-10.88 12.82-7.94 33.61-7.94 46.43 0 5 3.09 8 6.91 9.11 10.89a9.4 9.4 0 00.34-1.39c1-5.46-2.2-11.12-9.46-15.32-12.81-7.4-33.6-7.4-46.42 0-7.25 4.2-10.4 9.86-9.44 15.33z" fill="#ffc100"/><path d="M54.66 341.47c.09.46.2.91.33 1.37 1.1-4 4.14-7.79 9.11-10.88 12.82-7.94 33.61-7.94 46.43 0 5 3.09 8 6.91 9.11 10.89a9.4 9.4 0 00.34-1.39c1-5.46-2.2-11.12-9.46-15.32-12.81-7.4-33.6-7.4-46.42 0-7.25 4.2-10.4 9.86-9.44 15.33z" fill="#fff" opacity=".6"/></g><g><path d="M265 64.22a.78.78 0 00-.31-.7l-2.06-1.19a.78.78 0 00-.78.08l-31.6 18.22-.85-2.84a1 1 0 00-.46-.61L226.87 76a1 1 0 00-1 0l-13.58 7.84a2.43 2.43 0 00-1.1 1.91V131a.78.78 0 00.3.7l2.05 1.19a.81.81 0 00.75-.09l49.57-28.62a2.44 2.44 0 001.11-1.91z" fill="#ffc100"/><g opacity=".5" fill="#fff"><path d="M228.92 77.15a1 1 0 00-1 0L214.35 85a2.46 2.46 0 00-.78.82l-2.07-1.19a2.24 2.24 0 01.78-.83l13.58-7.8a1 1 0 011 0zM264.64 63.48a.85.85 0 00-.72.1L232 82a1 1 0 01-1.47-.59l-.25-.82 31.6-18.22a.9.9 0 01.49-.15.57.57 0 01.29.07z"/></g><path d="M213.4 132.78l.11.12-2-1.16a.55.55 0 01-.19-.21.5.5 0 010-.13 1 1 0 01-.06-.36v-45.3a.62.62 0 010-.13V85.2a3 3 0 01.17-.41c0-.05 0-.09.07-.13l2.07 1.19a2.27 2.27 0 00-.32 1.09v45.28a1.36 1.36 0 000 .2.36.36 0 000 .1v.13a.54.54 0 00.15.13z" opacity=".2"/><path d="M248.75 92.76c0 6.82-4.14 14.73-9.26 17.69s-9.25-.19-9.25-7 4.14-14.73 9.25-17.68 9.26.23 9.26 6.99z" fill="#fafafa"/><path d="M244.54 92.43l-4.39-3.32h-.1a1.75 1.75 0 00-.24-.11h-.32a.53.53 0 00-.12 0 .4.4 0 00-.11 0 .19.19 0 00-.08 0 1.33 1.33 0 00-.24.11l-.15.1a1.24 1.24 0 00-.18.22s-.06.05-.08.09l-4.39 8.39a1.09 1.09 0 00.46 1.47 1.13 1.13 0 00.51.12 1.08 1.08 0 001-.58l2.34-4.47v11.84a1.09 1.09 0 002.17 0V92.16l2.65 2a1.09 1.09 0 101.31-1.73z" fill="#ffc100"/></g><g><path d="M279.44 53.38l-2.87 11.14a2.82 2.82 0 00-.93-.43 3 3 0 102.17 3.66l2.58-10 10.73-.05-2.54 9.9a3 3 0 00-.93-.43 3 3 0 102.17 3.67l4.24-16.53z" fill="#ffc100"/><path d="M279.44 53.38l-2.87 11.14a2.82 2.82 0 00-.93-.43 3 3 0 102.17 3.66l2.58-10 10.73-.05-2.54 9.9a3 3 0 00-.93-.43 3 3 0 102.17 3.67l4.24-16.53z" fill="#fff" opacity=".45"/><path d="M238.62 40.31l-2.88 11.14a3.17 3.17 0 00-.93-.43 3 3 0 102.19 3.67l2.58-10 10.73-.05-2.54 9.9a2.93 2.93 0 00-.93-.43 3 3 0 102.16 3.68l4.24-16.53z" fill="#ffc100"/><path d="M238.62 40.31l-2.88 11.14a3.17 3.17 0 00-.93-.43 3 3 0 102.19 3.67l2.58-10 10.73-.05-2.54 9.9a2.93 2.93 0 00-.93-.43 3 3 0 102.16 3.68l4.24-16.53z" fill="#fff" opacity=".7"/><g><path d="M265.47 32.72a4.61 4.61 0 011.39-1.31 10.07 10.07 0 012.37-1 17.45 17.45 0 003.23-1.14 4.27 4.27 0 002.22-2.5 4.46 4.46 0 01-1.85.74c-1.59.24-3.42-.54-5-.62-2.39-.13-4.09.93-5.93 2.68 1 1.83 2 3.69 3 5.53.79 1.45 1.58 2.89 2.36 4.34.08.14 1 2 1 2a4.24 4.24 0 00-1.82.5 3.54 3.54 0 104.8 1.4z" fill="#ffc100"/><path d="M265.47 32.72a4.61 4.61 0 011.39-1.31 10.07 10.07 0 012.37-1 17.45 17.45 0 003.23-1.14 4.27 4.27 0 002.22-2.5 4.46 4.46 0 01-1.85.74c-1.59.24-3.42-.54-5-.62-2.39-.13-4.09.93-5.93 2.68 1 1.83 2 3.69 3 5.53.79 1.45 1.58 2.89 2.36 4.34.08.14 1 2 1 2a4.24 4.24 0 00-1.82.5 3.54 3.54 0 104.8 1.4z" fill="#fff" opacity=".2"/></g></g><g><path d="M291.88 80.47a53 53 0 004 33.26s25.63-6 38.86-4.8a45.73 45.73 0 01-3.39-31.73c-10.35-2.49-30.49-1.85-39.47 3.27z" fill="#f5f5f5"/><path d="M297.41 110.72a51.37 51.37 0 01-3.22-28.51c7.8-3.76 23.82-4.68 34-3a48.94 48.94 0 002.52 27c-11.52.01-27.59 3.27-33.3 4.51z" fill="#ffc100"/><path d="M297.41 110.72a51.37 51.37 0 01-3.22-28.51c7.8-3.76 23.82-4.68 34-3a48.94 48.94 0 002.52 27c-11.52.01-27.59 3.27-33.3 4.51z" fill="#fff" opacity=".7"/><path d="M317.11 84a2.56 2.56 0 00-3 1.85 2.34 2.34 0 002 2.74 2.54 2.54 0 003-1.85 2.34 2.34 0 00-2-2.74zM296 103.12l9.27-13 16.3 11.54L316.1 96l3.88-3.9 7.61 7.48a51.43 51.43 0 001.64 5.61c-10.83.28-24.76 3-31.19 4.37a45.37 45.37 0 01-2.04-6.44z" fill="#fff" opacity=".7"/><path d="M291.48 99.44a49.73 49.73 0 004.44 14.29s4.5-1 10.7-2.18a42.1 42.1 0 01-5.16-15 58.43 58.43 0 00-9.98 2.89z" opacity=".2"/><path d="M264.24 114a53 53 0 0016.83 29s21.2-15.59 33.82-19.74a45.73 45.73 0 01-15.64-27.82c-10.55 1.81-28.79 10.33-35.01 18.56z" fill="#f5f5f5"/><path d="M281.25 139.63A51.49 51.49 0 01267 114.7c5.69-6.52 20-13.7 30.09-16.17a49 49 0 0012.94 23.78c-10.54 4.59-24.03 13.93-28.78 17.32z" fill="#ffc100"/><path d="M281.25 139.63A51.49 51.49 0 01267 114.7c5.69-6.52 20-13.7 30.09-16.17a49 49 0 0012.94 23.78c-10.54 4.59-24.03 13.93-28.78 17.32z" fill="#fff" opacity=".7"/><path d="M288.81 107.3a2.57 2.57 0 00-2 2.88 2.34 2.34 0 002.92 1.72 2.53 2.53 0 002-2.88 2.34 2.34 0 00-2.92-1.72zM276.91 133.22l3.4-15.57 19.53 4.17-7.24-3.12 2-5.12 9.95 3.87a49.68 49.68 0 003.71 4.51c-9.84 4.53-21.56 12.52-26.94 16.32a45.7 45.7 0 01-4.41-5.06z" fill="#fff" opacity=".7"/></g><g><path d="M334.55 181.08c-10.06 0-20-5.14-23.54-8.61a62.14 62.14 0 01-13.2-33.47c2.07.2 4.14.3 6.17.3 15.37 0 25.35-5.82 28-7.6 3.42 21.56 20.57 34.83 23.53 37-3.26 4.95-9 8.94-17 11.85-.39.15-.79.28-1.19.4a25.79 25.79 0 01-2.77.13z" fill="#fafafa"/><path d="M331.63 132.63c3.6 20.41 19.3 33.28 23.19 36.19-3.24 4.65-8.76 8.42-16.45 11.21-.37.14-.74.26-1.12.38a26.4 26.4 0 01-2.7.13c-9.86 0-19.59-5-23.11-8.41a61.65 61.65 0 01-13-32.51c1.87.16 3.74.24 5.57.24 14.57 0 24.15-5 27.65-7.23m.8-1.85s-10.36 8-28.45 8a64.16 64.16 0 01-6.76-.37 63 63 0 0013.41 34.45c3.76 3.68 13.91 8.77 23.92 8.77a25.85 25.85 0 002.92-.16c.42-.12.85-.27 1.27-.42 6.65-2.41 13.7-6.31 17.56-12.5 0 0-20.49-13.71-23.87-37.77z" fill="#e0e0e0"/><path d="M330.61 137.4l3.61 10.82a20.19 20.19 0 01-10.64 5l-3.29-11.31a29.44 29.44 0 0010.32-4.51z" fill="#ffc100"/><path d="M330.61 137.4l3.61 10.82a20.19 20.19 0 01-10.64 5l-3.29-11.31a29.44 29.44 0 0010.32-4.51z" fill="#fff" opacity=".7"/><path d="M304.12 144.27a68.09 68.09 0 0014.52-1.42M305.43 150a68.93 68.93 0 0014.57-1.7M307.54 155.7a68.46 68.46 0 0014-1.93M310.34 161.16c10.79-.72 19.56-3.13 25.66-7.77M313.72 166.31c10.77-.95 19.48-3.55 25.49-8.33M317.55 171.05c10.76-1.19 19.42-4 25.32-8.89M321.73 175.26c10.74-1.41 19.34-4.4 25.14-9.43M326.14 178.86c10.72-1.65 19.27-4.82 25-10" fill="none" stroke="#e0e0e0" stroke-linecap="round" stroke-linejoin="round" stroke-width=".813"/><path d="M337.47 181.47c-5.36.25-9-5-9.47-8.61-3.23 2-11.37 3.36-17.37 0 5.37 5.93 20.67 10.04 26.84 8.61z" fill="#ebebeb"/><path d="M330.37 138.75a35.41 35.41 0 01-9.05 4l.66 2.49s0-1.23.66-1.44c1.68-.55 3.24-1.18 3.24-1.18s1.67 4.93 1.89 6a1.85 1.85 0 01-1.28 2.32l.23.49a22 22 0 004.42-2.22l-.19-.39s-1.7.66-2.2-.61-1.93-6-1.93-6 2.26-1.13 2.8-1.44a1.33 1.33 0 011.75.53z" fill="#fff" opacity=".7"/></g><g><path d="M401.88 153.81a53.64 53.64 0 00-20.37-27.09s-19.44 18.19-31.62 23.86a46.29 46.29 0 0119 26.09c10.41-3.1 27.71-13.83 32.99-22.86z" fill="#f5f5f5"/><path d="M381.73 130.1A52 52 0 01399 153.46c-4.94 7.23-18.51 16.15-28.3 19.82A49.53 49.53 0 00354.84 151c10.08-5.93 22.51-16.92 26.89-20.9z" fill="#ffc100"/><path d="M381.73 130.1A52 52 0 01399 153.46c-4.94 7.23-18.51 16.15-28.3 19.82A49.53 49.53 0 00354.84 151c10.08-5.93 22.51-16.92 26.89-20.9z" fill="#fff" opacity=".7"/><path d="M377.93 159.38a20.71 20.71 0 00-6.81-8.51 33.7 33.7 0 0012-5.26s1.11 5.85-5.19 13.77z" fill="#fff" opacity=".7"/></g><g><g fill="#455a64"><path d="M310.07 229.88a.54.54 0 01-.49-.29.56.56 0 01.21-.78l1.26-.73a.57.57 0 01.57 1l-1.26.73a.6.6 0 01-.29.07zM315.47 226.76a.54.54 0 01-.49-.29.55.55 0 01.21-.77l2.48-1.44a.57.57 0 01.57 1l-2.48 1.43a.6.6 0 01-.29.07zm6.61-3.82a.58.58 0 01-.49-.28.57.57 0 01.21-.78l2.48-1.43a.57.57 0 11.57 1l-2.48 1.43a.51.51 0 01-.29.06zm6.62-3.82a.57.57 0 01-.29-1.06l2.48-1.43a.57.57 0 01.57 1l-2.46 1.42a.58.58 0 01-.3.07zm6.61-3.81a.57.57 0 01-.28-1.07l2.48-1.43a.56.56 0 01.78.21.58.58 0 01-.21.78l-2.48 1.43a.6.6 0 01-.29.08zm6.61-3.82a.59.59 0 01-.49-.29.57.57 0 01.21-.78l2.48-1.43a.57.57 0 01.57 1l-2.48 1.43a.6.6 0 01-.29.07zm6.62-3.82a.57.57 0 01-.5-.29.58.58 0 01.21-.78l2.48-1.43a.57.57 0 01.78.21.56.56 0 01-.21.78l-2.48 1.43a.6.6 0 01-.28.08zm6.61-3.82a.55.55 0 01-.49-.28.56.56 0 01.21-.78l2.48-1.44a.57.57 0 01.57 1l-2.49 1.43a.46.46 0 01-.28.07zm6.61-3.82a.57.57 0 01-.28-1.06l2.48-1.43a.57.57 0 11.57 1l-2.48 1.46a.59.59 0 01-.29 0zm6.62-3.82a.57.57 0 01-.29-1.06l2.48-1.43a.57.57 0 01.57 1l-2.48 1.43a.58.58 0 01-.28.06zm6.62-3.81a.56.56 0 01-.49-.29.57.57 0 01.2-.78l2.49-1.43a.56.56 0 01.77.21.57.57 0 01-.2.78l-2.49 1.43a.54.54 0 01-.28.08zm6.61-3.82a.56.56 0 01-.49-.29.56.56 0 01.21-.78l2.48-1.43a.57.57 0 01.78.21.58.58 0 01-.21.78l-2.48 1.43a.6.6 0 01-.3.08zm6.62-3.82a.57.57 0 01-.5-.29.56.56 0 01.21-.77l2.48-1.44a.58.58 0 01.78.21.57.57 0 01-.21.78l-2.48 1.43a.5.5 0 01-.29.08zm6.61-3.82a.55.55 0 01-.49-.28.57.57 0 01.2-.78l2.48-1.43a.57.57 0 11.57 1l-2.48 1.44a.55.55 0 01-.29.05zm6.61-3.82a.57.57 0 01-.28-1.06l2.48-1.43a.56.56 0 01.78.21.58.58 0 01-.21.78l-2.48 1.43a.59.59 0 01-.3.07zM408.06 173.31a.59.59 0 01-.5-.29.57.57 0 01.21-.78l1-.57v-1.13a.58.58 0 01.57-.57.57.57 0 01.57.57V172a.58.58 0 01-.28.5l-1.27.73a.6.6 0 01-.3.08zM409.32 166a.57.57 0 01-.57-.57v-3a.57.57 0 01.57-.57.56.56 0 01.57.57v3a.56.56 0 01-.57.57zm0-8.11a.58.58 0 01-.57-.57v-3a.57.57 0 01.57-.57.56.56 0 01.57.57v3a.57.57 0 01-.57.61zm0-8.11a.58.58 0 01-.57-.57v-3a.58.58 0 01.57-.58.57.57 0 01.57.58v3a.57.57 0 01-.57.61zm0-8.11a.58.58 0 01-.57-.57v-3a.58.58 0 01.57-.57.57.57 0 01.57.57v3a.57.57 0 01-.57.61zm0-8.12a.57.57 0 01-.57-.57v-3a.58.58 0 01.57-.57.57.57 0 01.57.57v3a.56.56 0 01-.57.61zm0-8.11a.57.57 0 01-.57-.57v-3a.57.57 0 01.57-.57.56.56 0 01.57.57v3a.56.56 0 01-.57.61zm0-8.11a.58.58 0 01-.57-.57v-3a.57.57 0 01.57-.57.56.56 0 01.57.57v3a.57.57 0 01-.57.61zM409.32 109.26a.58.58 0 01-.57-.57v-1.47a.58.58 0 01.57-.57.57.57 0 01.57.57v1.47a.57.57 0 01-.57.57z"/></g><path d="M445.41 63.36l-.23-.13-.14-.09-5.15-3v-.36c0-6.31-2.13-10.74-5.47-12.6l-9.89-5.71c-2.72-1.57-6.26-1.42-10.14.82a22.91 22.91 0 00-4.89 3.87 10.34 10.34 0 00-2.14-1.69L397.82 39c-3.5-2.32-8.18-2.27-13.34.7-10.82 6.25-19.6 23-19.6 37.45a29.79 29.79 0 00.37 4.77l-1.36.78c-6.88 4-12.46 14.64-12.46 23.82 0 5.07 1.7 8.69 4.39 10.24l10 5.78c2.17 1.24 5 1.15 8.05-.63L392 111.45l48.3-27.88c4.14-2.39 7.49-8.79 7.49-14.3.01-2.88-.92-4.94-2.38-5.91z" fill="#ffc100" opacity=".8"/><path d="M445.41 63.36l-.23-.13-.14-.09-5.15-3v-.36c0-6.31-2.13-10.74-5.47-12.6l-9.89-5.71c-2.72-1.57-6.26-1.42-10.14.82a22.91 22.91 0 00-4.89 3.87 10.34 10.34 0 00-2.14-1.69L397.82 39c-3.5-2.32-8.18-2.27-13.34.7-10.82 6.25-19.6 23-19.6 37.45a29.79 29.79 0 00.37 4.77l-1.36.78c-6.88 4-12.46 14.64-12.46 23.82 0 5.07 1.7 8.69 4.39 10.24l10 5.78c2.17 1.24 5 1.15 8.05-.63L392 111.45l48.3-27.88c4.14-2.39 7.49-8.79 7.49-14.3.01-2.88-.92-4.94-2.38-5.91z" fill="#fff" opacity=".2"/><path d="M434.43 47.2c-2.7-1.51-6.21-1.34-10 .88a23.22 23.22 0 00-5.13 4.12l-9.07-5.27-.89-.51.22-.23a23.61 23.61 0 014.89-3.88c3.88-2.23 7.42-2.38 10.14-.81z" fill="#fff" opacity=".35"/><path d="M409.52 46.19a9.32 9.32 0 01.67.74l-.89-.51z" fill="#fff" opacity=".8"/><path d="M407.14 44.36c-3.41-1.9-7.83-1.68-12.66 1.11s-9.4 7.84-12.84 13.8l-10-5.75c3.43-6 7.92-11 12.83-13.81 5.15-3 9.84-3 13.34-.7zM375.23 87.7l-1.35.77c-4.66 2.7-8.74 8.47-10.87 14.77l-10-5.76a30.26 30.26 0 018.11-12.77l4.11-2.77z" fill="#fff" opacity=".35"/><path d="M440.31 63.62l-.71.41a32 32 0 00.3-4.23c0-11.42-6.95-16.67-15.51-11.72-4 2.29-7.6 6.38-10.34 11.24-.39-13.75-9-20-19.58-13.85-10.82 6.25-19.6 23-19.6 37.45a31.17 31.17 0 00.36 4.78l-1.35.77c-6.88 4-12.47 14.65-12.47 23.83 0 9.18 5.59 13.6 12.47 9.62L392 111.45l48.3-27.88c4.14-2.39 7.49-8.79 7.49-14.3.01-5.5-3.34-8.04-7.48-5.65z" fill="#ffc100"/><path d="M440.31 63.62l-.71.41a32 32 0 00.3-4.23c0-11.42-6.95-16.67-15.51-11.72-4 2.29-7.6 6.38-10.34 11.24-.39-13.75-9-20-19.58-13.85-10.82 6.25-19.6 23-19.6 37.45a31.17 31.17 0 00.36 4.78l-1.35.77c-6.88 4-12.47 14.65-12.47 23.83 0 9.18 5.59 13.6 12.47 9.62L392 111.45l48.3-27.88c4.14-2.39 7.49-8.79 7.49-14.3.01-5.5-3.34-8.04-7.48-5.65z" fill="#fff" opacity=".7"/><path d="M369 120.83c-3.07 0-5-3.35-5-8.53 0-8.22 5.12-18.11 11.19-21.61l1.35-.78a2.56 2.56 0 001.25-2.61 28 28 0 01-.33-4.38c0-13.6 8.21-29.4 18.32-35.24a13.15 13.15 0 016.5-2c5.46 0 9 5.25 9.24 13.71a2.55 2.55 0 004.78 1.18c2.63-4.65 6-8.3 9.4-10.28a9.86 9.86 0 014.88-1.52c4.13 0 6.79 4.33 6.79 11a29.38 29.38 0 01-.27 3.89 2.55 2.55 0 003.81 2.55l.71-.41a3.61 3.61 0 011.69-.55c1.36 0 2 2 2 4 0 4.61-2.84 10.14-6.2 12.09l-66.51 38.37a7.3 7.3 0 01-3.58 1.12z" fill="#fff" opacity=".7"/></g></svg>